<!-- <svg xmlns="http://www.w3.org/2000/svg" viewBox="0 0 841.9 595.3"><g fill="#61DAFB"><path d="M666.3 296.5c0-32.5-40.7-63.3-103.1-82.4 14.4-63.6 8-114.2-20.2-130.4-6.5-3.8-14.1-5.6-22.4-5.6v22.3c4.6 0 8.3.9 11.4 2.6 13.6 7.8 19.5 37.5 14.9 75.7-1.1 9.4-2.9 19.3-5.1 29.4-19.6-4.8-41-8.5-63.5-10.9-13.5-18.5-27.5-35.3-41.6-50 32.6-30.3 63.2-46.9 84-46.9V78c-27.5 0-63.5 19.6-99.9 53.6-36.4-33.8-72.4-53.2-99.9-53.2v22.3c20.7 0 51.4 16.5 84 46.6-14 14.7-28 31.4-41.3 49.9-22.6 2.4-44 6.1-63.6 11-2.3-10-4-19.7-5.2-29-4.7-38.2 1.1-67.9 14.6-75.8 3-1.8 6.9-2.6 11.5-2.6V78.5c-8.4 0-16 1.8-22.6 5.6-28.1 16.2-34.4 66.7-19.9 130.1-62.2 19.2-102.7 49.9-102.7 82.3 0 32.5 40.7 63.3 103.1 82.4-14.4 63.6-8 114.2 20.2 130.4 6.5 3.8 14.1 5.6 22.5 5.6 27.5 0 63.5-19.6 99.9-53.6 36.4 33.8 72.4 53.2 99.9 53.2 8.4 0 16-1.8 22.6-5.6 28.1-16.2 34.4-66.7 19.9-130.1 62-19.1 102.5-49.9 102.5-82.3zm-130.2-66.7c-3.7 12.9-8.3 26.2-13.5 39.5-4.1-8-8.4-16-13.1-24-4.6-8-9.5-15.8-14.4-23.4 14.2 2.1 27.9 4.7 41 7.9zm-45.8 106.5c-7.8 13.5-15.8 26.3-24.1 38.2-14.9 1.3-30 2-45.2 2-15.1 0-30.2-.7-45-1.9-8.3-11.9-16.4-24.6-24.2-38-7.6-13.1-14.5-26.4-20.8-39.8 6.2-13.4 13.2-26.8 20.7-39.9 7.8-13.5 15.8-26.3 24.1-38.2 14.9-1.3 30-2 45.2-2 15.1 0 30.2.7 45 1.9 8.3 11.9 16.4 24.6 24.2 38 7.6 13.1 14.5 26.4 20.8 39.8-6.3 13.4-13.2 26.8-20.7 39.9zm32.3-13c5.4 13.4 10 26.8 13.8 39.8-13.1 3.2-26.9 5.9-41.2 8 4.9-7.7 9.8-15.6 14.4-23.7 4.6-8 8.9-16.1 13-24.1zM421.2 430c-9.3-9.6-18.6-20.3-27.8-32 9 .4 18.2.7 27.5.7 9.4 0 18.7-.2 27.8-.7-9 11.7-18.3 22.4-27.5 32zm-74.4-58.9c-14.2-2.1-27.9-4.7-41-7.9 3.7-12.9 8.3-26.2 13.5-39.5 4.1 8 8.4 16 13.1 24 4.7 8 9.5 15.8 14.4 23.4zM420.7 163c9.3 9.6 18.6 20.3 27.8 32-9-.4-18.2-.7-27.5-.7-9.4 0-18.7.2-27.8.7 9-11.7 18.3-22.4 27.5-32zm-74 58.9c-4.9 7.7-9.8 15.6-14.4 23.7-4.6 8-8.9 16-13 24-5.4-13.4-10-26.8-13.8-39.8 13.1-3.1 26.9-5.8 41.2-7.9zm-90.5 125.2c-35.4-15.1-58.3-34.9-58.3-50.6 0-15.7 22.9-35.6 58.3-50.6 8.6-3.7 18-7 27.7-10.1 5.7 19.6 13.2 40 22.5 60.9-9.2 20.8-16.6 41.1-22.2 60.6-9.9-3.1-19.3-6.5-28-10.2zM310 490c-13.6-7.8-19.5-37.5-14.9-75.7 1.1-9.4 2.9-19.3 5.1-29.4 19.6 4.8 41 8.5 63.5 10.9 13.5 18.5 27.5 35.3 41.6 50-32.6 30.3-63.2 46.9-84 46.9-4.5-.1-8.3-1-11.3-2.7zm237.2-76.2c4.7 38.2-1.1 67.9-14.6 75.8-3 1.8-6.9 2.6-11.5 2.6-20.7 0-51.4-16.5-84-46.6 14-14.7 28-31.4 41.3-49.9 22.6-2.4 44-6.1 63.6-11 2.3 10.1 4.1 19.8 5.2 29.1zm38.5-66.7c-8.6 3.7-18 7-27.7 10.1-5.7-19.6-13.2-40-22.5-60.9 9.2-20.8 16.6-41.1 22.2-60.6 9.9 3.1 19.3 6.5 28.1 10.2 35.4 15.1 58.3 34.9 58.3 50.6-.1 15.7-23 35.6-58.4 50.6zM320.8 78.4z"/><circle cx="420.9" cy="296.5" r="45.7"/><path d="M520.5 78.1z"/></g></svg> -->

<svg xmlns="http://www.w3.org/2000/svg" version="1.0" width="300.000000pt" height="300.000000pt" viewBox="0 0 300.000000 300.000000" preserveAspectRatio="xMidYMid meet">
<metadata>
Created by potrace 1.10, written by Peter Selinger 2001-2011
</metadata>
<g transform="translate(0.000000,300.000000) scale(0.100000,-0.100000)" fill="#000000" stroke="none">
<path d="M780 1593 c6 -253 10 -271 75 -337 104 -108 304 -103 405 10 l35 39 111 -3 110 -3 -4 -63 -4 -62 38 1 c22 1 40 5 42 9 1 3 2 50 2 104 l0 97 -130 -3 c-71 -2 -130 0 -130 3 0 5 144 189 160 205 15 15 120 150 120 154 0 30 -124 -97 -125 -127 -1 -7 -7 -11 -14 -9 -7 1 -10 -2 -7 -7 4 -5 0 -13 -7 -18 -8 -4 -22 -21 -33 -38 -24 -39 -40 -55 -53 -55 -6 0 -11 -7 -11 -15 0 -8 -5 -15 -11 -15 -6 0 -9 -7 -5 -15 3 -8 2 -15 -3 -15 -12 0 -22 -43 -13 -52 4 -4 59 -8 123 -9 l115 -2 3 -36 c7 -97 7 -101 -11 -101 -10 0 -18 5 -18 11 0 5 5 7 10 4 6 -4 1 11 -10 33 -15 29 -29 41 -51 46 -21 4 -28 10 -23 18 6 10 5 10 -7 2 -8 -7 -25 -11 -39 -10 -14 1 -33 -2 -44 -7 -11 -5 -16 -5 -13 0 4 6 -12 7 -39 3 -30 -5 -56 -17 -77 -37 -64 -60 -123 -86 -197 -87 -33 0 -90 16 -90 25 0 6 -4 8 -9 5 -10 -6 -59 29 -79 56 -7 9 -18 23 -25 30 -36 36 -39 67 -38 306 1 142 2 152 20 152 24 0 30 -37 29 -214 0 -109 4 -152 18 -198 11 -32 23 -58 27 -58 16 0 56 -37 49 -45 -4 -5 -1 -5 6 -1 6 4 28 2 46 -5 48 -18 135 4 182 45 56 48 64 85 64 292 l0 182 25 0 c25 0 25 -2 26 -87 1 -111 5 -141 22 -158 14 -14 47 -8 47 8 0 5 7 9 15 9 8 0 15 4 15 8 0 5 8 17 18 28 9 10 24 30 33 44 28 43 141 160 149 155 5 -3 12 -1 15 5 5 8 11 8 20 0 10 -8 15 -8 20 1 6 8 10 7 16 -2 4 -8 14 -14 21 -14 10 0 13 -41 15 -180 1 -99 -1 -174 -4 -167 -4 10 -8 10 -19 1 -32 -26 -40 4 -38 145 1 75 -2 136 -7 136 -4 0 -10 8 -12 18 -3 9 -5 -56 -6 -145 0 -90 -2 -166 -3 -170 -2 -5 22 -9 52 -10 l55 -3 0 210 0 210 -68 0 c-46 0 -78 -5 -95 -16 -22 -14 -146 -162 -217 -259 -13 -18 -14 -4 -15 128 l0 147 -50 0 -50 0 0 -210 c0 -228 -2 -241 -57 -291 -83 -78 -229 -53 -279 48 -17 34 -19 61 -19 245 l0 208 -50 0 -50 0 5 -227z"/>
<path d="M898 1608 c4 -243 10 -264 86 -299 53 -24 90 -24 141 1 74 36 79 56 85 298 l5 212 -52 0 -53 0 0 -198 c0 -180 -2 -200 -18 -215 -23 -21 -51 -21 -77 -1 -19 14 -20 27 -20 214 l0 200 -50 0 -50 0 3 -212z m62 -2 c0 -173 0 -175 26 -205 21 -26 33 -31 67 -31 79 1 81 6 87 218 5 185 5 187 28 190 l22 3 0 -189 c0 -156 -3 -192 -15 -202 -8 -7 -12 -17 -9 -22 3 -5 -2 -8 -12 -6 -12 2 -18 -2 -17 -12 3 -19 -41 -40 -84 -40 -37 0 -97 26 -89 38 3 5 1 14 -5 22 -7 13 -9 13 -9 0 0 -8 -10 3 -20 25 -18 35 -20 60 -19 205 1 91 3 168 6 173 2 4 13 7 24 7 18 0 19 -8 19 -174z"/>
<path d="M1750 1608 c6 -242 11 -262 85 -298 53 -26 91 -25 145 3 72 37 78 58 82 300 l3 207 -50 0 -50 0 3 -188 c3 -179 2 -189 -18 -215 -25 -32 -60 -35 -85 -7 -15 17 -17 40 -16 215 l2 195 -53 0 -53 0 5 -212z m54 166 c14 -5 16 -29 16 -156 0 -116 -3 -148 -12 -142 -10 6 -10 4 0 -7 6 -7 12 -20 12 -30 0 -9 10 -29 22 -44 19 -25 26 -27 70 -23 27 3 55 11 61 17 8 8 13 70 15 194 2 100 7 186 12 190 4 5 17 6 28 3 19 -7 20 -14 18 -169 -2 -171 -8 -215 -31 -233 -8 -6 -12 -14 -8 -18 4 -4 -1 -4 -11 0 -14 5 -17 3 -14 -7 11 -33 -107 -55 -132 -24 -7 8 -16 13 -20 10 -4 -3 -10 5 -13 16 -3 12 -10 18 -15 15 -20 -12 -32 77 -32 236 0 142 3 178 16 178 1 0 9 -3 18 -6z"/>
<path d="M2088 1633 c2 -123 -1 -203 -9 -230 -21 -76 -100 -134 -179 -132 -60 2 -140 53 -155 100 -6 17 -14 20 -66 17 l-60 -3 -1 -104 -1 -104 44 0 44 0 -3 43 -4 42 39 -30 c50 -39 92 -52 166 -52 92 0 135 17 198 80 73 73 78 96 81 353 l3 207 -50 0 -50 0 3 -187z m66 -50 c-1 -156 -3 -183 -21 -223 -24 -53 -48 -82 -95 -113 -40 -28 -115 -49 -149 -41 -13 3 -36 7 -50 9 -14 2 -41 12 -60 23 -59 35 -78 36 -88 9 -6 -16 -16 -23 -32 -22 -19 1 -24 8 -26 38 -1 21 3 37 9 37 7 0 7 4 1 13 -5 6 -7 21 -4 32 5 17 15 21 49 22 31 1 42 -3 42 -13 0 -22 29 -49 80 -75 80 -42 182 -26 247 39 45 44 53 90 53 282 0 97 3 180 7 183 3 4 13 1 22 -7 14 -12 16 -42 15 -193z"/>
<path d="M1515 1588 c-44 -55 -79 -107 -79 -114 1 -8 -3 -11 -8 -8 -9 6 -27 -12 -47 -46 -8 -13 6 -15 99 -15 l109 0 3 143 c2 78 3 142 3 142 -1 0 -37 -46 -80 -102z m55 -80 c0 -87 9 -79 -89 -82 l-48 -1 9 28 c6 15 14 27 19 27 5 0 9 7 9 15 0 8 5 15 10 15 6 0 10 4 10 9 0 15 51 68 66 68 11 0 14 -18 14 -79z"/>
</g>
</svg>